<svg xmlns="http://www.w3.org/2000/svg" viewBox="0 0 120 120">
  <defs>
    <radialGradient id="ro" cx="50%" cy="42%" r="62%">
      <stop offset="0%" stop-color="#F2CFC7"/>
      <stop offset="60%" stop-color="#EBBBB1"/>
      <stop offset="100%" stop-color="#E0A398"/>
    </radialGradient>
    <radialGradient id="rm" cx="50%" cy="45%" r="60%">
      <stop offset="0%" stop-color="#EDBBB1"/>
      <stop offset="100%" stop-color="#DB988D"/>
    </radialGradient>
    <radialGradient id="ri" cx="50%" cy="48%" r="58%">
      <stop offset="0%" stop-color="#E1A298"/>
      <stop offset="100%" stop-color="#CC8178"/>
    </radialGradient>
    <linearGradient id="lf" x1="0%" y1="0%" x2="100%" y2="100%">
      <stop offset="0%" stop-color="#4FA08F"/>
      <stop offset="100%" stop-color="#2C6E62"/>
    </linearGradient>
  </defs>
  <path d="M50 60 C 52 80 56 96 66 116" fill="none" stroke="#2C6E62" stroke-width="3" stroke-linecap="round"/>
  <g stroke="#27645A" stroke-width="1" stroke-linejoin="round">
    <path d="M53 80 C 40 76 28 82 24 96 C 38 99 51 93 53 80 Z" fill="url(#lf)"/>
    <path d="M49 84 C 41 87 33 91 27 95" fill="none" stroke-width="1.1"/>
    <path d="M57 96 C 69 92 82 97 86 110 C 73 113 60 108 57 96 Z" fill="url(#lf)"/>
    <path d="M62 99 C 70 100 78 104 83 109" fill="none" stroke-width="1.1"/>
  </g>
  <g transform="translate(2 -6) scale(0.82)">
    <g fill="url(#ro)" stroke="#C9A227" stroke-width="0.9" stroke-opacity="0.6" stroke-linejoin="round">
      <path d="M50 50 C 34 43 32 22 50 10 C 68 22 66 43 50 50 Z"/>
      <path d="M50 50 C 34 43 32 22 50 10 C 68 22 66 43 50 50 Z" transform="rotate(45 50 50)"/>
      <path d="M50 50 C 34 43 32 22 50 10 C 68 22 66 43 50 50 Z" transform="rotate(90 50 50)"/>
      <path d="M50 50 C 34 43 32 22 50 10 C 68 22 66 43 50 50 Z" transform="rotate(135 50 50)"/>
      <path d="M50 50 C 34 43 32 22 50 10 C 68 22 66 43 50 50 Z" transform="rotate(180 50 50)"/>
      <path d="M50 50 C 34 43 32 22 50 10 C 68 22 66 43 50 50 Z" transform="rotate(225 50 50)"/>
      <path d="M50 50 C 34 43 32 22 50 10 C 68 22 66 43 50 50 Z" transform="rotate(270 50 50)"/>
      <path d="M50 50 C 34 43 32 22 50 10 C 68 22 66 43 50 50 Z" transform="rotate(315 50 50)"/>
    </g>
    <g fill="url(#rm)" stroke="#B5827A" stroke-width="0.7" stroke-opacity="0.55" stroke-linejoin="round">
      <path d="M50 49 C 39 44 38 28 50 20 C 62 28 61 44 50 49 Z"/>
      <path d="M50 49 C 39 44 38 28 50 20 C 62 28 61 44 50 49 Z" transform="rotate(60 50 50)"/>
      <path d="M50 49 C 39 44 38 28 50 20 C 62 28 61 44 50 49 Z" transform="rotate(120 50 50)"/>
      <path d="M50 49 C 39 44 38 28 50 20 C 62 28 61 44 50 49 Z" transform="rotate(180 50 50)"/>
      <path d="M50 49 C 39 44 38 28 50 20 C 62 28 61 44 50 49 Z" transform="rotate(240 50 50)"/>
      <path d="M50 49 C 39 44 38 28 50 20 C 62 28 61 44 50 49 Z" transform="rotate(300 50 50)"/>
    </g>
    <g fill="url(#ri)" stroke="#A86E66" stroke-width="0.6" stroke-opacity="0.5" stroke-linejoin="round">
      <path d="M50 48 C 43 45 43 34 50 30 C 57 34 57 45 50 48 Z"/>
      <path d="M50 48 C 43 45 43 34 50 30 C 57 34 57 45 50 48 Z" transform="rotate(72 50 50)"/>
      <path d="M50 48 C 43 45 43 34 50 30 C 57 34 57 45 50 48 Z" transform="rotate(144 50 50)"/>
      <path d="M50 48 C 43 45 43 34 50 30 C 57 34 57 45 50 48 Z" transform="rotate(216 50 50)"/>
      <path d="M50 48 C 43 45 43 34 50 30 C 57 34 57 45 50 48 Z" transform="rotate(288 50 50)"/>
    </g>
    <path d="M50 47 C 45 47 43 43 46 40 C 49 38 54 40 53 44 C 52 47 47 47 47 43" fill="none" stroke="#9C645C" stroke-width="1.5" stroke-linecap="round"/>
    <circle cx="50" cy="49" r="2.1" fill="#9C645C"/>
  </g>
</svg>
