<svg xmlns="http://www.w3.org/2000/svg" viewBox="0 0 120 120" fill="none" stroke-linecap="round" stroke-linejoin="round">
  <path d="M46 66 C 49 84 53 98 64 116" stroke="#007C89" stroke-width="3"/>
  <path d="M50 84 C 38 80 26 86 22 100 C 36 102 49 96 50 84 Z" stroke="#007C89" stroke-width="2.6" fill="#007C89" fill-opacity="0.10"/>
  <path d="M44 88 C 36 91 29 96 24 101" stroke="#007C89" stroke-width="1.4"/>
  <path d="M55 98 C 67 94 80 99 84 112 C 71 114 58 109 55 98 Z" stroke="#007C89" stroke-width="2.6" fill="#007C89" fill-opacity="0.10"/>
  <path d="M61 101 C 69 102 76 106 81 111" stroke="#007C89" stroke-width="1.4"/>
  <g transform="translate(2 -4) scale(0.8)">
    <g fill="#FCF6BA" fill-opacity="0.30" stroke="#B38728" stroke-width="2.6">
      <path d="M50 50 C 41 33 41 17 50 8 C 59 17 59 33 50 50 Z"/>
      <path d="M50 50 C 41 33 41 17 50 8 C 59 17 59 33 50 50 Z" transform="rotate(60 50 50)"/>
      <path d="M50 50 C 41 33 41 17 50 8 C 59 17 59 33 50 50 Z" transform="rotate(120 50 50)"/>
      <path d="M50 50 C 41 33 41 17 50 8 C 59 17 59 33 50 50 Z" transform="rotate(180 50 50)"/>
      <path d="M50 50 C 41 33 41 17 50 8 C 59 17 59 33 50 50 Z" transform="rotate(240 50 50)"/>
      <path d="M50 50 C 41 33 41 17 50 8 C 59 17 59 33 50 50 Z" transform="rotate(300 50 50)"/>
    </g>
    <path d="M50 49 C 46 49 44 46 45 43 C 46 39 51 38 54 41 C 58 45 56 51 50 52 C 43 53 38 47 41 41 C 44 33 53 32 60 38" fill="none" stroke="#AA771C" stroke-width="2.6"/>
  </g>
</svg>
